# Blender v2.78 (sub 0) OBJ File: ''
# www.blender.org
mtllib sylinteri4.mtl
o Cube.003_Cube.004
v -0.877750 1.379911 0.988969
v -0.723750 1.379911 0.988969
v -0.877750 1.379911 -1.001702
v -0.723750 1.379911 -1.001702
v -0.877750 1.325173 0.988969
v -0.723750 1.325173 0.988969
v -0.877750 1.325173 -1.001702
v -0.723750 1.325173 -1.001702
vn 0.0000 1.0000 0.0000
vn 0.0000 0.0000 -1.0000
vn 0.0000 -1.0000 0.0000
vn 0.0000 0.0000 1.0000
vn -1.0000 0.0000 0.0000
vn 1.0000 0.0000 0.0000
usemtl None
s off
f 1//1 2//1 4//1 3//1
f 3//2 4//2 8//2 7//2
f 7//3 8//3 6//3 5//3
f 5//4 6//4 2//4 1//4
f 3//5 7//5 5//5 1//5
f 8//6 4//6 2//6 6//6
o Cube.002_Cube.003
v -0.049016 2.063782 0.994404
v -0.035563 2.217193 0.994404
v -0.049016 2.063782 -0.996266
v -0.035563 2.217193 -0.996266
v 0.005513 2.059000 0.994404
v 0.018967 2.212411 0.994404
v 0.005513 2.059000 -0.996266
v 0.018967 2.212411 -0.996266
vn -0.9962 0.0874 0.0000
vn 0.0000 0.0000 -1.0000
vn 0.9962 -0.0874 0.0000
vn 0.0000 0.0000 1.0000
vn -0.0874 -0.9962 0.0000
vn 0.0874 0.9962 0.0000
usemtl None
s off
f 9//7 10//7 12//7 11//7
f 11//8 12//8 16//8 15//8
f 15//9 16//9 14//9 13//9
f 13//10 14//10 10//10 9//10
f 11//11 15//11 13//11 9//11
f 16//12 12//12 10//12 14//12
o Cube.001_Cube.002
v 0.710547 1.490699 0.986254
v 0.864547 1.490699 0.986254
v 0.710547 1.490699 -1.004417
v 0.864547 1.490699 -1.004417
v 0.710547 1.435960 0.986254
v 0.864547 1.435960 0.986254
v 0.710547 1.435960 -1.004417
v 0.864547 1.435960 -1.004417
vn 0.0000 1.0000 0.0000
vn 0.0000 0.0000 -1.0000
vn 0.0000 -1.0000 0.0000
vn 0.0000 0.0000 1.0000
vn -1.0000 0.0000 0.0000
vn 1.0000 0.0000 0.0000
usemtl None
s off
f 17//13 18//13 20//13 19//13
f 19//14 20//14 24//14 23//14
f 23//15 24//15 22//15 21//15
f 21//16 22//16 18//16 17//16
f 19//17 23//17 21//17 17//17
f 24//18 20//18 18//18 22//18
o Cube_Cube.001
v -0.105825 0.461226 0.994726
v -0.092372 0.614638 0.994726
v -0.105825 0.461226 -0.995944
v -0.092372 0.614638 -0.995944
v -0.051296 0.456444 0.994726
v -0.037843 0.609856 0.994726
v -0.051296 0.456444 -0.995944
v -0.037843 0.609856 -0.995944
vn -0.9962 0.0874 0.0000
vn 0.0000 0.0000 -1.0000
vn 0.9962 -0.0874 0.0000
vn 0.0000 0.0000 1.0000
vn -0.0874 -0.9962 0.0000
vn 0.0874 0.9962 0.0000
usemtl None
s off
f 25//19 26//19 28//19 27//19
f 27//20 28//20 32//20 31//20
f 31//21 32//21 30//21 29//21
f 29//22 30//22 26//22 25//22
f 27//23 31//23 29//23 25//23
f 32//24 28//24 26//24 30//24
o Cylinder
v 0.000000 2.331043 -1.000000
v 0.000000 2.331043 1.000000
v 0.195090 2.311828 -1.000000
v 0.195090 2.311828 1.000000
v 0.382683 2.254922 -1.000000
v 0.382683 2.254922 1.000000
v 0.555570 2.162512 -1.000000
v 0.555570 2.162512 1.000000
v 0.707107 2.038149 -1.000000
v 0.707107 2.038149 1.000000
v 0.831470 1.886613 -1.000000
v 0.831470 1.886613 1.000000
v 0.923880 1.713726 -1.000000
v 0.923880 1.713726 1.000000
v 0.980785 1.526133 -1.000000
v 0.980785 1.526133 1.000000
v 1.000000 1.331043 -1.000000
v 1.000000 1.331043 1.000000
v 0.980785 1.135952 -1.000000
v 0.980785 1.135952 1.000000
v 0.923880 0.948359 -1.000000
v 0.923880 0.948359 1.000000
v 0.831470 0.775473 -1.000000
v 0.831470 0.775472 1.000000
v 0.707107 0.623936 -1.000000
v 0.707107 0.623936 1.000000
v 0.555570 0.499573 -1.000000
v 0.555570 0.499573 1.000000
v 0.382683 0.407163 -1.000000
v 0.382683 0.407163 1.000000
v 0.195090 0.350257 -1.000000
v 0.195090 0.350257 1.000000
v -0.000000 0.331043 -1.000000
v -0.000000 0.331043 1.000000
v -0.195091 0.350258 -1.000000
v -0.195091 0.350257 1.000000
v -0.382684 0.407163 -1.000000
v -0.382684 0.407163 1.000000
v -0.555571 0.499573 -1.000000
v -0.555571 0.499573 1.000000
v -0.707107 0.623936 -1.000000
v -0.707107 0.623936 1.000000
v -0.831470 0.775473 -1.000000
v -0.831470 0.775473 1.000000
v -0.923880 0.948360 -1.000000
v -0.923880 0.948360 1.000000
v -0.980785 1.135953 -1.000000
v -0.980785 1.135953 1.000000
v -1.000000 1.331044 -1.000000
v -1.000000 1.331044 1.000000
v -0.980785 1.526134 -1.000000
v -0.980785 1.526134 1.000000
v -0.923879 1.713727 -1.000000
v -0.923879 1.713727 1.000000
v -0.831469 1.886614 -1.000000
v -0.831469 1.886614 1.000000
v -0.707106 2.038150 -1.000000
v -0.707106 2.038150 1.000000
v -0.555569 2.162513 -1.000000
v -0.555569 2.162513 1.000000
v -0.382682 2.254923 -1.000000
v -0.382682 2.254923 1.000000
v -0.195089 2.311828 -1.000000
v -0.195089 2.311828 1.000000
v 0.000000 2.210043 -1.000000
v 0.000000 2.210042 1.000000
v 0.171486 2.193154 -1.000000
v 0.171486 2.193154 1.000000
v 0.336380 2.143136 -1.000000
v 0.336380 2.143136 1.000000
v 0.488348 2.061907 -1.000000
v 0.488348 2.061907 1.000000
v 0.621550 1.952592 -1.000000
v 0.621550 1.952592 1.000000
v 0.730865 1.819390 -1.000000
v 0.730865 1.819390 1.000000
v 0.812093 1.667423 -1.000000
v 0.812093 1.667423 1.000000
v 0.862112 1.502529 -1.000000
v 0.862112 1.502529 1.000000
v 0.879000 1.331043 -1.000000
v 0.879000 1.331043 1.000000
v 0.862112 1.159557 -1.000000
v 0.862112 1.159556 1.000000
v 0.812093 0.994663 -1.000000
v 0.812093 0.994663 1.000000
v 0.730865 0.842695 -1.000000
v 0.730865 0.842695 1.000000
v 0.621550 0.709493 -1.000000
v 0.621550 0.709493 1.000000
v 0.488348 0.600178 -1.000000
v 0.488348 0.600178 1.000000
v 0.336380 0.518950 -1.000000
v 0.336380 0.518950 1.000000
v 0.171486 0.468931 -1.000000
v 0.171486 0.468931 1.000000
v -0.000000 0.452039 -1.000000
v -0.000000 0.452039 1.000000
v -0.171487 0.468931 -1.000000
v -0.171487 0.468931 1.000000
v -0.336381 0.518950 -1.000000
v -0.336381 0.518950 1.000000
v -0.488348 0.600178 -1.000000
v -0.488348 0.600178 1.000000
v -0.621550 0.709493 -1.000000
v -0.621550 0.709493 1.000000
v -0.730865 0.842696 -1.000000
v -0.730865 0.842696 1.000000
v -0.812093 0.994663 -1.000000
v -0.812093 0.994663 1.000000
v -0.862112 1.159557 -1.000000
v -0.862112 1.159557 1.000000
v -0.879004 1.331044 -1.000000
v -0.879004 1.331044 1.000000
v -0.862112 1.502530 -1.000000
v -0.862112 1.502530 1.000000
v -0.812092 1.667424 -1.000000
v -0.812092 1.667424 1.000000
v -0.730864 1.819391 -1.000000
v -0.730864 1.819391 1.000000
v -0.621549 1.952593 -1.000000
v -0.621549 1.952593 1.000000
v -0.488346 2.061908 -1.000000
v -0.488346 2.061908 1.000000
v -0.336379 2.143136 -1.000000
v -0.336379 2.143136 1.000000
v -0.171485 2.193155 -1.000000
v -0.171485 2.193155 1.000000
vn 0.0980 0.9952 0.0000
vn 0.2903 0.9569 0.0000
vn 0.4714 0.8819 0.0000
vn 0.6344 0.7730 0.0000
vn 0.7730 0.6344 0.0000
vn 0.8819 0.4714 0.0000
vn 0.9569 0.2903 0.0000
vn 0.9952 0.0980 0.0000
vn 0.9952 -0.0980 -0.0000
vn 0.9569 -0.2903 -0.0000
vn 0.8819 -0.4714 -0.0000
vn 0.7730 -0.6344 -0.0000
vn 0.6344 -0.7730 -0.0000
vn 0.4714 -0.8819 -0.0000
vn 0.2903 -0.9569 -0.0000
vn 0.0980 -0.9952 -0.0000
vn -0.0980 -0.9952 -0.0000
vn -0.2903 -0.9569 -0.0000
vn -0.4714 -0.8819 -0.0000
vn -0.6344 -0.7730 -0.0000
vn -0.7730 -0.6344 -0.0000
vn -0.8819 -0.4714 -0.0000
vn -0.9569 -0.2903 0.0000
vn -0.9952 -0.0980 0.0000
vn -0.9952 0.0980 0.0000
vn -0.9569 0.2903 0.0000
vn -0.8819 0.4714 0.0000
vn -0.7730 0.6344 0.0000
vn -0.6344 0.7730 0.0000
vn -0.4714 0.8819 0.0000
vn -0.2903 0.9569 0.0000
vn -0.0980 0.9952 0.0000
vn -0.0000 0.0000 -1.0000
vn 0.0000 0.0000 1.0000
usemtl None
s off
f 33//25 34//25 36//25 35//25
f 35//26 36//26 38//26 37//26
f 37//27 38//27 40//27 39//27
f 39//28 40//28 42//28 41//28
f 41//29 42//29 44//29 43//29
f 43//30 44//30 46//30 45//30
f 45//31 46//31 48//31 47//31
f 47//32 48//32 50//32 49//32
f 49//33 50//33 52//33 51//33
f 51//34 52//34 54//34 53//34
f 53//35 54//35 56//35 55//35
f 55//36 56//36 58//36 57//36
f 57//37 58//37 60//37 59//37
f 59//38 60//38 62//38 61//38
f 61//39 62//39 64//39 63//39
f 63//40 64//40 66//40 65//40
f 65//41 66//41 68//41 67//41
f 67//42 68//42 70//42 69//42
f 69//43 70//43 72//43 71//43
f 71//44 72//44 74//44 73//44
f 73//45 74//45 76//45 75//45
f 75//46 76//46 78//46 77//46
f 77//47 78//47 80//47 79//47
f 79//48 80//48 82//48 81//48
f 81//49 82//49 84//49 83//49
f 83//50 84//50 86//50 85//50
f 85//51 86//51 88//51 87//51
f 87//52 88//52 90//52 89//52
f 89//53 90//53 92//53 91//53
f 91//54 92//54 94//54 93//54
f 93//55 94//55 96//55 95//55
f 95//56 96//56 34//56 33//56
f 97//41 99//41 100//41 98//41
f 99//42 101//42 102//42 100//42
f 101//43 103//43 104//43 102//43
f 103//44 105//44 106//44 104//44
f 105//45 107//45 108//45 106//45
f 107//46 109//46 110//46 108//46
f 109//47 111//47 112//47 110//47
f 111//48 113//48 114//48 112//48
f 113//49 115//49 116//49 114//49
f 115//50 117//50 118//50 116//50
f 117//51 119//51 120//51 118//51
f 119//52 121//52 122//52 120//52
f 121//53 123//53 124//53 122//53
f 123//54 125//54 126//54 124//54
f 125//55 127//55 128//55 126//55
f 127//56 129//56 130//56 128//56
f 129//25 131//25 132//25 130//25
f 131//26 133//26 134//26 132//26
f 133//27 135//27 136//27 134//27
f 135//28 137//28 138//28 136//28
f 137//29 139//29 140//29 138//29
f 139//30 141//30 142//30 140//30
f 141//31 143//31 144//31 142//31
f 143//32 145//32 146//32 144//32
f 145//33 147//33 148//33 146//33
f 147//34 149//34 150//34 148//34
f 149//35 151//35 152//35 150//35
f 151//36 153//36 154//36 152//36
f 153//37 155//37 156//37 154//37
f 155//38 157//38 158//38 156//38
f 157//39 159//39 160//39 158//39
f 159//40 97//40 98//40 160//40
f 33//57 35//57 99//57 97//57
f 36//58 34//58 98//58 100//58
f 35//57 37//57 101//57 99//57
f 38//58 36//58 100//58 102//58
f 37//57 39//57 103//57 101//57
f 40//58 38//58 102//58 104//58
f 39//57 41//57 105//57 103//57
f 42//58 40//58 104//58 106//58
f 41//57 43//57 107//57 105//57
f 44//58 42//58 106//58 108//58
f 43//57 45//57 109//57 107//57
f 46//58 44//58 108//58 110//58
f 45//57 47//57 111//57 109//57
f 48//58 46//58 110//58 112//58
f 47//57 49//57 113//57 111//57
f 50//58 48//58 112//58 114//58
f 49//57 51//57 115//57 113//57
f 52//58 50//58 114//58 116//58
f 51//57 53//57 117//57 115//57
f 54//58 52//58 116//58 118//58
f 53//57 55//57 119//57 117//57
f 56//58 54//58 118//58 120//58
f 55//57 57//57 121//57 119//57
f 58//58 56//58 120//58 122//58
f 57//57 59//57 123//57 121//57
f 60//58 58//58 122//58 124//58
f 59//57 61//57 125//57 123//57
f 62//58 60//58 124//58 126//58
f 61//57 63//57 127//57 125//57
f 64//58 62//58 126//58 128//58
f 63//57 65//57 129//57 127//57
f 66//58 64//58 128//58 130//58
f 65//57 67//57 131//57 129//57
f 68//58 66//58 130//58 132//58
f 67//57 69//57 133//57 131//57
f 70//58 68//58 132//58 134//58
f 69//57 71//57 135//57 133//57
f 72//58 70//58 134//58 136//58
f 71//57 73//57 137//57 135//57
f 74//58 72//58 136//58 138//58
f 73//57 75//57 139//57 137//57
f 76//58 74//58 138//58 140//58
f 75//57 77//57 141//57 139//57
f 78//58 76//58 140//58 142//58
f 77//57 79//57 143//57 141//57
f 80//58 78//58 142//58 144//58
f 79//57 81//57 145//57 143//57
f 82//58 80//58 144//58 146//58
f 81//57 83//57 147//57 145//57
f 84//58 82//58 146//58 148//58
f 83//57 85//57 149//57 147//57
f 86//58 84//58 148//58 150//58
f 85//57 87//57 151//57 149//57
f 88//58 86//58 150//58 152//58
f 87//57 89//57 153//57 151//57
f 90//58 88//58 152//58 154//58
f 89//57 91//57 155//57 153//57
f 92//58 90//58 154//58 156//58
f 91//57 93//57 157//57 155//57
f 94//58 92//58 156//58 158//58
f 93//57 95//57 159//57 157//57
f 96//58 94//58 158//58 160//58
f 95//57 33//57 97//57 159//57
f 34//58 96//58 160//58 98//58
